<svg x="0" y="0" width="512" height="512" version="1.1"
    xmlns="http://www.w3.org/2000/svg"
    xmlns:xlink="http://www.w3.org/1999/xlink" viewBox="0 0 512 512">
    <title>book open icon</title>
    <desc>book open icon from the IconExperience.com G-Collection. Copyright by INCORS GmbH (www.incors.com).</desc>
    <g>
        <path d="M16,96l480,0c8.8,0 16,7.2 16,16l0,320c0,8.8 -7.2,16 -16,16l-196.3,0c-5.55,9.55 -15.9,16 -27.7,16l-32,0c-11.8,0 -22.15,-6.45 -27.7,-16l-196.3,0c-8.8,0 -16,-7.2 -16,-16l0,-320c0,-8.8 7.2,-16 16,-16z" fill="#28b5f5"/>
        <path d="M256,96l240,0c8.8,0 16,7.2 16,16c0,106.65 0,213.35 0,320c0,8.8 -7.2,16 -16,16l-196.3,0c-5.55,9.55 -15.9,16 -27.7,16l-16,0z" fill="#0299e3"/>
        <path d="M32,80l448,0l0,352c-149.35,0 -298.65,0 -448,0z" fill="#ffffff"/>
        <polygon points="256,80 480,80 480,432 256,432" fill="#cdd7db"/>
        <polygon points="112,16 256,80 256,432 112,368" fill="#cdd7db"/>
        <polygon points="400,16 256,80 256,432 400,368" fill="#ebedef"/>
    </g>
</svg>