<svg x="0" y="0" width="512" height="512" version="1.1"
    xmlns="http://www.w3.org/2000/svg"
    xmlns:xlink="http://www.w3.org/1999/xlink" viewBox="0 0 512 512">
    <title>dictionary icon</title>
    <desc>dictionary icon from the IconExperience.com G-Collection. Copyright by INCORS GmbH (www.incors.com).</desc>
    <g>
        <path d="M448,48c0,138.65 0,277.35 0,416c0,17.6 -14.4,32 -32,32l-272,0c-35.25,0 -64,-28.75 -64,-64l0,-352c0,-35.25 28.75,-64 64,-64l272,0c17.6,0 32,14.4 32,32z" fill="#f37c00"/>
        <path d="M432,48c0,138.65 0,277.35 0,416c0,17.6 -14.35,32 -32,32l-16,0c17.65,0 32,-14.4 32,-32c0,-138.65 0,-277.35 0,-416c0,-17.6 -14.35,-32 -32,-32l16,0c17.65,0 32,14.4 32,32z" fill="#e55000"/>
        <path d="M416,32c8.8,0 16,7.2 16,16l0,416c0,8.8 -7.2,16 -16,16l-304,0c-35.25,0 -64,-28.75 -64,-64l0,-320c0,-35.25 28.75,-64 64,-64z" fill="#ebedef"/>
        <path d="M416,48c0,138.65 0,277.35 0,416c0,17.6 -14.4,32 -32,32l-272,0c-35.25,0 -64,-28.75 -64,-64l0,-352c0,-35.25 28.75,-64 64,-64l272,0c17.6,0 32,14.4 32,32z" fill="#f98b00"/>
        <path d="M416,48c0,138.65 0,277.35 0,416c0,17.6 -14.4,32 -32,32l-272,0c-18.9,0 -35.9,-8.25 -47.65,-21.35l343.45,-448c5.1,5.7 8.2,13.15 8.2,21.35z" fill="#f37c00"/>
        <path d="M96,16l32,0l0,480l-32,0c-26.45,0 -48,-21.55 -48,-48l0,-384c0,-26.45 21.55,-48 48,-48z" fill="#546e7a"/>
        <path d="M128,391.65l0,104.35l-32,0c-14.15,0 -26.95,-6.2 -35.75,-16z" fill="#445a64"/>
        <polygon points="112,16 128,16 128,496 112,496" fill="#445a64"/>
        <polygon points="128,391.65 128,496 112,496 112,412.5" fill="#36464e"/>
        <path d="M315.95,341.55l68.05,0l0,26.45l-110.95,0l0,-18.15l67.9,-97.85l-68.25,0l0,-26.4l110.6,0l0,17.55z M230,259.8l-47,0l-8.25,26.6l-36.65,0l52.25,-142.4l32.25,0l52.65,142.4l-36.9,0z M191.2,233.35l30.6,0l-15.35,-49.45z" fill="#ffdfb1"/>
        <path d="M315.95,341.55l68.05,0l0,26.45l-110.95,0l0,-18.15l67.9,-97.85l-68.25,0l0,-26.4l110.6,0l0,17.55z M230,259.8l-0.9,0l24.5,-31.95l21.65,58.55l-36.9,0z" fill="#ffcb7f"/>
    </g>
</svg>