<?xml version="1.0" encoding="UTF-8" standalone="no"?>
<svg
   xmlns:dc="http://purl.org/dc/elements/1.1/"
   xmlns:cc="http://creativecommons.org/ns#"
   xmlns:rdf="http://www.w3.org/1999/02/22-rdf-syntax-ns#"
   xmlns:svg="http://www.w3.org/2000/svg"
   xmlns="http://www.w3.org/2000/svg"
   xmlns:sodipodi="http://sodipodi.sourceforge.net/DTD/sodipodi-0.dtd"
   xmlns:inkscape="http://www.inkscape.org/namespaces/inkscape"
   version="1"
   viewBox="0 0 48 48"
   enable-background="new 0 0 48 48"
   id="svg2"
   inkscape:version="0.48.2 r9819"
   width="100%"
   height="100%"
   sodipodi:docname="smc.collection.svg">
  <metadata
     id="metadata12">
    <rdf:RDF>
      <cc:Work
         rdf:about="">
        <dc:format>image/svg+xml</dc:format>
        <dc:type
           rdf:resource="http://purl.org/dc/dcmitype/StillImage" />
      </cc:Work>
    </rdf:RDF>
  </metadata>
  <defs
     id="defs10" />
  <sodipodi:namedview
     pagecolor="#ffffff"
     bordercolor="#666666"
     borderopacity="1"
     objecttolerance="10"
     gridtolerance="10"
     guidetolerance="10"
     inkscape:pageopacity="0"
     inkscape:pageshadow="2"
     inkscape:window-width="1920"
     inkscape:window-height="1017"
     id="namedview8"
     showgrid="false"
     inkscape:zoom="6.0625"
     inkscape:cx="4.2886598"
     inkscape:cy="24"
     inkscape:window-x="1352"
     inkscape:window-y="-8"
     inkscape:window-maximized="0"
     inkscape:current-layer="svg2" />
  <g
     id="g2992"
     transform="translate(-88.824743,-40.329897)">
    <path
       style="fill:#ffba41;fill-opacity:1"
       id="path4"
       d="m 125.7346,52.329897 h -16 l -4,-4 H 95.734598 c -2.2,0 -4,1.8 -4,4 v 24 c 0,2.2 1.8,4 4,4 H 126.7346 c 1.7,0 3,-1.3 3,-3 v -21 c 0,-2.2 -1.8,-4 -4,-4 z"
       inkscape:connector-curvature="0" />
    <path
       style="fill:#ffd34c;fill-opacity:1"
       id="path6"
       d="m 129.9346,58.329897 h -26.9 c -1.9,0 -3.600002,1.4 -3.900002,3.3 l -3.4,18.7 H 127.4346 c 1.9,0 3.6,-1.4 3.9,-3.3 l 2.5,-14 c 0.5,-2.4 -1.4,-4.7 -3.9,-4.7 z"
       inkscape:connector-curvature="0" />
  </g>
</svg>
