<?xml version="1.0" encoding="UTF-8" standalone="no"?>
<!-- Generator: Adobe Illustrator 19.1.0, SVG Export Plug-In . SVG Version: 6.00 Build 0)  -->

<svg
   xmlns:dc="http://purl.org/dc/elements/1.1/"
   xmlns:cc="http://creativecommons.org/ns#"
   xmlns:rdf="http://www.w3.org/1999/02/22-rdf-syntax-ns#"
   xmlns:svg="http://www.w3.org/2000/svg"
   xmlns="http://www.w3.org/2000/svg"
   xmlns:sodipodi="http://sodipodi.sourceforge.net/DTD/sodipodi-0.dtd"
   xmlns:inkscape="http://www.inkscape.org/namespaces/inkscape"
   version="1.1"
   id="Layer_1"
   x="0px"
   y="0px"
   viewBox="0 0 92 92"
   xml:space="preserve"
   inkscape:version="0.48.2 r9819"
   width="100%"
   height="100%"
   sodipodi:docname="logo.svg"><metadata
   id="metadata55"><rdf:RDF><cc:Work
       rdf:about=""><dc:format>image/svg+xml</dc:format><dc:type
         rdf:resource="http://purl.org/dc/dcmitype/StillImage" /><dc:title /></cc:Work></rdf:RDF></metadata><defs
   id="defs53" /><sodipodi:namedview
   pagecolor="#ffffff"
   bordercolor="#666666"
   borderopacity="1"
   objecttolerance="10"
   gridtolerance="10"
   guidetolerance="10"
   inkscape:pageopacity="0"
   inkscape:pageshadow="2"
   inkscape:window-width="1001"
   inkscape:window-height="677"
   id="namedview51"
   showgrid="false"
   inkscape:zoom="3.2190265"
   inkscape:cx="8.6269754"
   inkscape:cy="45.2"
   inkscape:window-x="2050"
   inkscape:window-y="0"
   inkscape:window-maximized="0"
   inkscape:current-layer="Layer_1" />
<style
   type="text/css"
   id="style3">
	.st0{fill:#007DC3;}
	.st1{fill:#CCCCCC;}
	.st2{fill:#50B848;}
</style>
<g
   id="g5"
   transform="translate(0.24760938,0.7749367)">
	<g
   id="g7">
		<path
   class="st0"
   d="m 89.4,18 c 2.2,-1.3 2.7,-3.1 1.4,-5.3 L 84.6,2.1 C 83.4,-0.1 81.5,-0.6 79.4,0.7 L 68.7,6.9 c -2.3,1.2 -2.7,3 -1.5,5.2 l 6.2,10.8 c 1.2,2.1 3.1,2.6 5.3,1.3 L 89.4,18 z"
   id="path9"
   inkscape:connector-curvature="0"
   style="fill:#007dc3" />
		<path
   class="st0"
   d="m 67,19 c -1.1,-1.2 -2.4,-1.3 -3.7,-0.1 l -6,5.8 c -1.2,1.1 -1.2,2.4 -0.1,3.6 l 5.7,6 c 1.2,1.3 2.4,1.3 3.7,0.1 l 6,-5.8 c 1.3,-1.1 1.3,-2.3 0.1,-3.6 L 67,19 z"
   id="path11"
   inkscape:connector-curvature="0"
   style="fill:#007dc3" />
		<path
   class="st0"
   d="M 56,35.2 53.1,40 c -0.6,1 -0.4,1.8 0.5,2.4 l 4.8,3 c 1,0.5 1.8,0.4 2.4,-0.6 L 63.7,40 c 0.6,-1 0.4,-1.8 -0.6,-2.4 l -4.8,-2.8 c -1,-0.7 -1.8,-0.5 -2.3,0.4 z"
   id="path13"
   inkscape:connector-curvature="0"
   style="fill:#007dc3" />
		<path
   class="st0"
   d="m 59.9,48.9 c 0.2,-0.7 0,-1.2 -0.8,-1.4 l -3.7,-1.1 c -0.8,-0.2 -1.3,0.1 -1.5,0.8 l -1.1,3.6 c -0.2,0.8 0.2,1.3 0.9,1.5 l 3.7,1.1 c 0.8,0.2 1.2,0 1.5,-0.8 l 1,-3.7 z"
   id="path15"
   inkscape:connector-curvature="0"
   style="fill:#007dc3" />
		<path
   class="st0"
   d="m 56.3,56.6 v 2 c -0.1,0.5 0.1,0.6 0.5,0.6 h 2 c 0.4,0 0.6,-0.2 0.6,-0.5 v -2 c 0,-0.5 -0.2,-0.6 -0.6,-0.6 h -1.9 c -0.4,0 -0.6,0.1 -0.6,0.5 z"
   id="path17"
   inkscape:connector-curvature="0"
   style="fill:#007dc3" />
	</g>
	<g
   id="g19">
		<path
   class="st1"
   d="m 40.8,25.7 -2.3,8 c -0.5,1.6 0.1,2.7 1.8,3.1 l 8,2.3 c 1.6,0.5 2.7,0 3.1,-1.7 l 2.3,-8 c 0.5,-1.6 0,-2.7 -1.7,-3.1 L 44,24 c -1.6,-0.5 -2.7,0 -3.2,1.7 z"
   id="path21"
   inkscape:connector-curvature="0"
   style="fill:#cccccc" />
	</g>
	<g
   id="g23">
		<path
   d="M 17,19.6 V 32 c 0,2.5 1.3,3.8 3.8,3.8 H 33.2 C 35.8,35.8 37,34.5 37,32 V 19.6 C 37,17 35.8,15.8 33.2,15.8 H 20.8 C 18.3,15.8 17,17 17,19.6 z"
   id="path25"
   inkscape:connector-curvature="0" />
		<path
   d="M 26.7,39.6 C 25,40 24.4,41 24.7,42.7 l 2,8 c 0.5,1.6 1.5,2.3 3.1,1.9 l 8,-2 c 1.7,-0.5 2.3,-1.5 1.9,-3.1 l -2,-8.1 c -0.5,-1.6 -1.5,-2.3 -3.1,-1.8 l -7.9,2 z"
   id="path27"
   inkscape:connector-curvature="0" />
		<path
   d="m 35.1,57.2 2.7,5 c 0.6,0.9 1.4,1.1 2.4,0.6 L 45,60 c 1.1,-0.5 1.3,-1.3 0.8,-2.3 l -2.7,-5 c -0.6,-1 -1.4,-1.2 -2.4,-0.7 l -4.9,2.7 c -1.1,0.7 -1.2,1.4 -0.7,2.5 z"
   id="path29"
   inkscape:connector-curvature="0" />
		<path
   d="M 49,60.6 C 48.5,60 47.9,60 47.3,60.6 l -2.7,2.7 c -0.6,0.5 -0.6,1.1 0,1.6 l 2.7,2.7 c 0.5,0.6 1.1,0.6 1.6,0 L 51.6,65 c 0.5,-0.5 0.5,-1.1 0.1,-1.7 L 49,60.6 z"
   id="path31"
   inkscape:connector-curvature="0" />
		<path
   d="m 57.3,66.7 c 0.2,-0.3 0.2,-0.6 -0.2,-0.8 L 55.4,64.8 C 55.1,64.6 54.8,64.7 54.6,65 l -1,1.7 c -0.2,0.3 -0.2,0.6 0.2,0.8 l 1.7,1 c 0.3,0.2 0.6,0.2 0.8,-0.2 l 1,-1.6 z"
   id="path33"
   inkscape:connector-curvature="0" />
	</g>
	<g
   id="g35">
		<path
   class="st1"
   d="m 34.7,62.2 -5.8,-6 C 27.8,55 26.5,55 25.2,56.1 l -5.9,5.7 C 18.1,63 18,64.2 19.2,65.5 l 5.7,5.9 c 1.2,1.2 2.4,1.2 3.6,0.1 l 6,-5.7 c 1.4,-1.3 1.4,-2.5 0.2,-3.6 z"
   id="path37"
   inkscape:connector-curvature="0"
   style="fill:#cccccc" />
	</g>
	<g
   id="g39">
		<path
   class="st2"
   d="m 57.3,74.9 -3.7,0.9 c -0.8,0.2 -1.1,0.6 -0.9,1.4 l 0.9,3.7 c 0.2,0.8 0.7,1.1 1.5,0.8 l 3.7,-0.8 c 0.8,-0.2 1.1,-0.8 0.9,-1.5 l -0.9,-3.7 c -0.2,-0.7 -0.7,-1 -1.5,-0.8 z"
   id="path41"
   inkscape:connector-curvature="0"
   style="fill:#50b848" />
		<path
   class="st2"
   d="m 62.1,75.2 1.7,-1 C 64.2,74 64.3,73.7 64,73.4 L 63.2,71.7 C 63,71.4 62.7,71.2 62.3,71.5 l -1.7,0.9 c -0.4,0.2 -0.4,0.5 -0.2,0.8 l 0.9,1.7 c 0.2,0.4 0.4,0.5 0.8,0.3 z"
   id="path43"
   inkscape:connector-curvature="0"
   style="fill:#50b848" />
		<path
   class="st2"
   d="m 51.2,84.5 0.2,-5.6 c 0,-1.1 -0.5,-1.8 -1.8,-1.8 L 44,77 c -1.1,0 -1.7,0.5 -1.7,1.7 l -0.2,5.6 c -0.1,1.1 0.5,1.8 1.7,1.8 l 5.6,0.1 c 1.1,0.2 1.8,-0.4 1.8,-1.7 z"
   id="path45"
   inkscape:connector-curvature="0"
   style="fill:#50b848" />
		<path
   class="st2"
   d="m 39.4,80.5 c 0.5,-1.7 -0.1,-2.7 -1.7,-3.1 l -8,-2.3 c -1.6,-0.5 -2.7,0.1 -3.1,1.7 l -2.3,8 c -0.5,1.6 0.1,2.7 1.7,3.1 l 8,2.4 c 1.6,0.5 2.7,-0.2 3.1,-1.8 l 2.3,-8 z"
   id="path47"
   inkscape:connector-curvature="0"
   style="fill:#50b848" />
		<path
   class="st2"
   d="M 24.2,77.2 C 25.5,75.1 25,73.3 22.8,72 L 12.1,65.8 C 9.8,64.5 8.1,65 6.8,67.2 L 0.7,77.9 c -1.3,2.2 -0.8,4 1.5,5.2 l 10.7,6.2 c 2.1,1.3 3.9,0.8 5.2,-1.4 l 6.1,-10.7 z"
   id="path49"
   inkscape:connector-curvature="0"
   style="fill:#50b848" />
	</g>
</g>
</svg>