<svg x="0" y="0" width="512" height="512" version="1.1"
    xmlns="http://www.w3.org/2000/svg"
    xmlns:xlink="http://www.w3.org/1999/xlink" viewBox="0 0 512 512">
    <title>menu icon</title>
    <desc>menu icon from the IconExperience.com G-Collection. Copyright by INCORS GmbH (www.incors.com).</desc>
    <g>
        <path d="M256,16c132.55,0 240,107.45 240,240c0,132.55 -107.45,240 -240,240c-132.55,0 -240,-107.45 -240,-240c0,-132.55 107.45,-240 240,-240z" fill="#337ab7"/>
        <path d="M86.3,425.7l339.4,-339.4c43.45,43.4 70.3,103.45 70.3,169.7c0,132.55 -107.45,240 -240,240c-66.25,0 -126.25,-26.85 -169.7,-70.3z" fill="#337ab7"/>
        <path d="M144,144l224,0l0,32l-224,0z M144,336l224,0l0,32l-224,0z M144,240l224,0l0,32l-224,0z" fill="#ffffff"/>
        <path d="M368,144l0,32l-32,0z M144,368l32,-32l192,0l0,32z M240,272l32,-32l96,0l0,32z" fill="#ebedef"/>
    </g>
</svg>