<?xml version="1.0" encoding="UTF-8" standalone="no"?>
<svg
   xmlns:dc="http://purl.org/dc/elements/1.1/"
   xmlns:cc="http://creativecommons.org/ns#"
   xmlns:rdf="http://www.w3.org/1999/02/22-rdf-syntax-ns#"
   xmlns:svg="http://www.w3.org/2000/svg"
   xmlns="http://www.w3.org/2000/svg"
   xmlns:sodipodi="http://sodipodi.sourceforge.net/DTD/sodipodi-0.dtd"
   xmlns:inkscape="http://www.inkscape.org/namespaces/inkscape"
   x="0"
   y="0"
   width="512"
   height="512"
   version="1.1"
   viewBox="0 0 512 512"
   id="svg2"
   inkscape:version="0.48.2 r9819"
   sodipodi:docname="window_close.svg">
  <metadata
     id="metadata30">
    <rdf:RDF>
      <cc:Work
         rdf:about="">
        <dc:format>image/svg+xml</dc:format>
        <dc:type
           rdf:resource="http://purl.org/dc/dcmitype/StillImage" />
      </cc:Work>
    </rdf:RDF>
  </metadata>
  <defs
     id="defs28" />
  <sodipodi:namedview
     pagecolor="#ffffff"
     bordercolor="#666666"
     borderopacity="1"
     objecttolerance="10"
     gridtolerance="10"
     guidetolerance="10"
     inkscape:pageopacity="0"
     inkscape:pageshadow="2"
     inkscape:window-width="706"
     inkscape:window-height="566"
     id="namedview26"
     showgrid="false"
     inkscape:zoom="0.4609375"
     inkscape:cx="256"
     inkscape:cy="256"
     inkscape:window-x="1926"
     inkscape:window-y="358"
     inkscape:window-maximized="0"
     inkscape:current-layer="g8" />
  <title
     id="title4">window close icon</title>
  <desc
     id="desc6">window close icon from the IconExperience.com G-Collection. Copyright by INCORS GmbH (www.incors.com).</desc>
  <g
     id="g8">
    <path
       d="m 237.55932,96 0,352 L 0,448 0,96 C 0,87.2 3.8179177,80 8.4842615,80 L 229.07506,80 c 4.66634,0 8.48426,7.2 8.48426,16 z"
       id="path10"
       inkscape:connector-curvature="0"
       style="fill:#28b5f5" />
    <path
       d="M448,96l0,352l-448,0l442.85,-363.75c3.15,2.9 5.15,7.1 5.15,11.75z"
       fill="#0299e3"
       id="path12" />
    <polygon
       points="0,144 448,144 448,448 0,448"
       fill="#dff3fd"
       id="polygon14" />
    <polygon
       points="370.1,144 448,144 448,448 0,448"
       fill="#b1e3fb"
       id="polygon16" />
    <path
       d="M320,32l176,0c8.8,0 16,7.2 16,16l0,176c0,8.8 -7.2,16 -16,16l-176,0c-8.8,0 -16,-7.2 -16,-16l0,-176c0,-8.8 7.2,-16 16,-16z"
       fill="#d74214"
       id="path18"
       style="fill:#68ba1c;fill-opacity:1" />
  </g>
  <polygon
     transform="matrix(0.62335217,0,0,0.62335217,250.45575,-22.900194)"
     style="fill:#ffffff"
     points="288,400 224,400 224,288 112,288 112,224 224,224 224,112 288,112 288,224 400,224 400,288 288,288 "
     id="polygon14-4" />
</svg>
