<svg x="0" y="0" width="512" height="512" version="1.1"
    xmlns="http://www.w3.org/2000/svg"
    xmlns:xlink="http://www.w3.org/1999/xlink" viewBox="0 0 512 512">
    <title>printer icon</title>
    <desc>printer icon from the IconExperience.com G-Collection. Copyright by INCORS GmbH (www.incors.com).</desc>
    <g>
        <path d="M96,176l320,0c8.8,0 16,7.2 16,16l0,80l-352,0l0,-80c0,-8.8 7.2,-16 16,-16z" fill="#546e7a"/>
        <polygon points="112,32 400,32 400,320 112,320" fill="#dff3fd"/>
        <polygon points="400,32 400,320 112,320" fill="#b1e3fb"/>
        <path d="M144,64l224,0l0,16l-224,0z M144,112l224,0l0,16l-224,0z M144,160l224,0l0,16l-224,0z M144,208l128,0l0,16l-128,0z" fill="#788f9b"/>
        <path d="M368,64l0,0l0,16l-16,0z M208,224l16,-16l48,0l0,16z M256,176l16,-16l96,0l0,16z M304,128l16,-16l48,0l0,16z" fill="#546e7a"/>
        <path d="M64,256c118.2,0 265.8,0 384,0c35.25,0 64,28.75 64,64l0,160l-512,0l0,-160c0,-35.25 28.75,-64 64,-64z" fill="#788f9b"/>
        <polygon points="0,336 512,336 512,480 0,480" fill="#546e7a"/>
        <path d="M96,384l320,0c8.8,0 16,7.2 16,16l0,80l-352,0l0,-80c0,-8.8 7.2,-16 16,-16z" fill="#36464e"/>
        <polygon points="112,416 400,416 400,464 112,464" fill="#dff3fd"/>
        <polygon points="112,448 400,448 400,464 112,464" fill="#b1e3fb"/>
        <path d="M456,272c13.25,0 24,10.75 24,24c0,13.25 -10.75,24 -24,24c-13.25,0 -24,-10.75 -24,-24c0,-13.25 10.75,-24 24,-24z" fill="#98dc4d"/>
        <path d="M472.95,279.05c4.35,4.3 7.05,10.3 7.05,16.95c0,13.25 -10.75,24 -24,24c-6.65,0 -12.65,-2.7 -16.95,-7.05z" fill="#85d435"/>
        <path d="M392,272c13.25,0 24,10.75 24,24c0,13.25 -10.75,24 -24,24c-13.25,0 -24,-10.75 -24,-24c0,-13.25 10.75,-24 24,-24z" fill="#afbdc3"/>
        <path d="M408.95,279.05c4.35,4.3 7.05,10.3 7.05,16.95c0,13.25 -10.75,24 -24,24c-6.65,0 -12.65,-2.7 -16.95,-7.05z" fill="#8fa3ad"/>
    </g>
</svg>