<svg x="0" y="0" width="512" height="512" version="1.1"
    xmlns="http://www.w3.org/2000/svg"
    xmlns:xlink="http://www.w3.org/1999/xlink" viewBox="0 0 512 512">
    <title>arrow circle2 icon</title>
    <desc>arrow circle2 icon from the IconExperience.com G-Collection. Copyright by INCORS GmbH (www.incors.com).</desc>
    <g>
        <path d="M304,190.4l0,-158.4l158.4,0l-56.6,56.55l8.85,8.8c42.15,42.15 65.35,99.05 65.35,158.65c0,57.3 -21.85,114.65 -65.6,158.4c-43.75,43.75 -101.05,65.6 -158.4,65.6c-8.2,0 -16.4,-0.45 -24.55,-1.35l0,-64.55c8.1,1.25 16.35,1.9 24.55,1.9c40.95,0 81.9,-15.6 113.15,-46.85c31.25,-31.25 46.85,-72.2 46.85,-113.15c0,-40.95 -15.4,-82.1 -46.65,-113.35l-8.8,-8.85z" fill="#788f9b"/>
        <path d="M208,321.6l0,158.4l-158.4,0l56.6,-56.6l-8.85,-8.8c-42.15,-42.15 -65.35,-99 -65.35,-158.6c0,-57.35 21.85,-114.65 65.6,-158.4c43.75,-43.75 101.05,-65.6 158.4,-65.6c8.2,0 16.4,0.45 24.55,1.35l0,64.55c-8.1,-1.3 -16.35,-1.9 -24.55,-1.9c-40.95,0 -81.9,15.6 -113.15,46.85c-31.25,31.25 -46.85,72.2 -46.85,113.15c0,40.95 15.4,82.1 46.65,113.35l8.8,8.8z" fill="#788f9b"/>
        <path d="M304,190.4l0,-158.4l87.75,88.25c34.75,34.75 56.25,82.75 56.25,135.75c0,106.05 -85.95,192 -192,192c-8.3,0 -16.5,-0.55 -24.55,-1.55l0,-32.35c8.1,1.25 16.35,1.9 24.55,1.9c40.95,0 81.9,-15.6 113.15,-46.85c31.25,-31.25 46.85,-72.2 46.85,-113.15c0,-40.95 -15.4,-82.1 -46.65,-113.35l-8.8,-8.85z" fill="#546e7a"/>
        <path d="M208,321.6l0,158.4l-87.75,-88.25c-34.75,-34.75 -56.25,-82.75 -56.25,-135.75c0,-106.05 85.95,-192 192,-192c8.3,0 16.5,0.5 24.55,1.55l0,32.35c-8.1,-1.3 -16.35,-1.9 -24.55,-1.9c-40.95,0 -81.9,15.6 -113.15,46.85c-31.25,31.25 -46.85,72.2 -46.85,113.15c0,40.95 15.4,82.1 46.65,113.35l8.8,8.8z" fill="#546e7a"/>
    </g>
</svg>