<?xml version="1.0" encoding="UTF-8" standalone="no"?>
<!DOCTYPE svg PUBLIC "-//W3C//DTD SVG 1.1//EN" "http://www.w3.org/Graphics/SVG/1.1/DTD/svg11.dtd">
<svg version="1.1" xmlns="http://www.w3.org/2000/svg" xmlns:xlink="http://www.w3.org/1999/xlink" preserveAspectRatio="xMidYMid meet" viewBox="0 0 640 640" width="25" height="25"><defs><path d="M318.04 0.6L325.37 1.35L332.62 2.38L339.77 3.7L346.83 5.29L353.77 7.15L360.61 9.27L367.32 11.66L373.91 14.29L380.37 17.18L386.7 20.3L392.89 23.66L398.92 27.25L404.81 31.06L410.53 35.09L416.09 39.34L421.48 43.78L426.69 48.43L431.72 53.27L436.57 58.3L441.21 63.52L445.66 68.91L449.9 74.47L453.93 80.19L457.75 86.08L461.34 92.11L464.7 98.3L467.82 104.62L470.7 111.08L473.34 117.68L475.72 124.39L477.85 131.23L479.71 138.17L481.3 145.22L482.62 152.38L483.65 159.62L484.39 166.96L484.85 174.38L485 181.88L484.85 189.37L484.39 196.79L483.65 204.13L482.62 211.37L481.3 218.53L479.71 225.58L477.85 232.52L475.72 239.36L473.34 246.07L470.7 252.66L467.82 259.13L464.7 265.45L461.34 271.64L457.75 277.67L453.93 283.56L449.9 289.28L445.66 294.84L441.21 300.23L436.57 305.44L431.72 310.47L426.69 315.32L421.48 319.96L416.09 324.41L410.53 328.65L404.81 332.68L398.92 336.5L392.89 340.09L386.7 343.44L380.37 346.57L373.91 349.45L367.32 352.09L360.61 354.47L353.77 356.6L346.83 358.46L339.77 360.05L332.62 361.37L325.37 362.4L318.04 363.14L310.62 363.59L303.12 363.75L295.63 363.59L288.21 363.14L280.87 362.4L273.62 361.37L266.47 360.05L259.42 358.46L252.47 356.6L245.64 354.47L238.92 352.09L232.33 349.45L225.87 346.57L219.54 343.44L213.36 340.09L207.32 336.5L201.44 332.68L195.71 328.65L190.15 324.41L184.76 319.96L179.55 315.32L174.52 310.47L169.68 305.44L165.03 300.23L160.58 294.84L156.34 289.28L152.31 283.56L148.5 277.67L144.91 271.64L141.55 265.45L138.43 259.13L135.54 252.66L132.91 246.07L130.52 239.36L128.4 232.52L126.54 225.58L124.94 218.53L123.63 211.37L122.6 204.13L121.85 196.79L121.4 189.37L121.25 181.88L121.4 174.38L121.85 166.96L122.6 159.62L123.63 152.38L124.94 145.22L126.54 138.17L128.4 131.23L130.52 124.39L132.91 117.68L135.54 111.08L138.43 104.62L141.55 98.3L144.91 92.11L148.5 86.08L152.31 80.19L156.34 74.47L160.58 68.91L165.03 63.52L169.68 58.3L174.52 53.27L179.55 48.43L184.76 43.78L190.15 39.34L195.71 35.09L201.44 31.06L207.32 27.25L213.36 23.66L219.54 20.3L225.87 17.18L232.33 14.29L238.92 11.66L245.64 9.27L252.47 7.15L259.42 5.29L266.47 3.7L273.62 2.38L280.87 1.35L288.21 0.6L295.63 0.15L303.12 0L310.62 0.15L318.04 0.6ZM291.95 45.92L286.46 46.48L281.03 47.26L275.67 48.25L270.38 49.44L265.18 50.84L260.05 52.44L255.02 54.23L250.08 56.21L245.23 58.37L240.49 60.72L235.85 63.24L231.32 65.94L226.91 68.8L222.61 71.82L218.44 75.01L214.4 78.34L210.49 81.83L206.71 85.47L203.08 89.24L199.59 93.15L196.25 97.2L193.07 101.37L190.04 105.66L187.18 110.07L184.49 114.6L181.96 119.24L179.62 123.98L177.45 128.83L175.47 133.77L173.68 138.81L172.08 143.93L170.69 149.13L169.49 154.42L168.5 159.78L167.73 165.21L167.17 170.7L166.83 176.26L166.71 181.88L166.83 187.49L167.17 193.05L167.73 198.54L168.5 203.97L169.49 209.33L170.69 214.62L172.08 219.82L173.68 224.95L175.47 229.98L177.45 234.92L179.62 239.77L181.96 244.51L184.49 249.15L187.18 253.68L190.04 258.09L193.07 262.38L196.25 266.55L199.59 270.6L203.08 274.51L206.71 278.28L210.49 281.92L214.4 285.4L218.44 288.74L222.61 291.93L226.91 294.95L231.32 297.81L235.85 300.51L240.49 303.03L245.23 305.38L250.08 307.54L255.02 309.52L260.05 311.31L265.18 312.91L270.38 314.31L275.67 315.5L281.03 316.49L286.46 317.26L291.95 317.82L297.51 318.16L303.12 318.28L308.74 318.16L314.29 317.82L319.79 317.26L325.22 316.49L330.58 315.5L335.86 314.31L341.07 312.91L346.19 311.31L351.23 309.52L356.17 307.54L361.01 305.38L365.76 303.03L370.4 300.51L374.92 297.81L379.34 294.95L383.63 291.93L387.8 288.74L391.85 285.4L395.76 281.92L399.53 278.28L403.17 274.51L406.65 270.6L409.99 266.55L413.18 262.38L416.2 258.09L419.06 253.68L421.76 249.15L424.28 244.51L426.63 239.77L428.79 234.92L430.77 229.98L432.56 224.95L434.16 219.82L435.56 214.62L436.75 209.33L437.74 203.97L438.52 198.54L439.07 193.05L439.41 187.49L439.53 181.88L439.41 176.26L439.07 170.7L438.52 165.21L437.74 159.78L436.75 154.42L435.56 149.13L434.16 143.93L432.56 138.81L430.77 133.77L428.79 128.83L426.63 123.98L424.28 119.24L421.76 114.6L419.06 110.07L416.2 105.66L413.18 101.37L409.99 97.2L406.65 93.15L403.17 89.24L399.53 85.47L395.76 81.83L391.85 78.34L387.8 75.01L383.63 71.82L379.34 68.8L374.92 65.94L370.4 63.24L365.76 60.72L361.01 58.37L356.17 56.21L351.23 54.23L346.19 52.44L341.07 50.84L335.86 49.44L330.58 48.25L325.22 47.26L319.79 46.48L314.29 45.92L308.74 45.59L303.12 45.47L297.51 45.59L291.95 45.92Z" id="j3y4mR5De"></path><path d="M124.59 296.11C141.17 321.9 163.11 343.83 188.89 360.41C177.77 371.53 88.75 460.55 77.62 471.68C59.85 489.44 31.05 489.44 13.33 471.68C-4.44 453.95 -4.44 425.15 13.32 407.39C35.58 385.13 113.46 307.24 124.59 296.11Z" id="c1RrRU0VqQ"></path></defs><g><g><g><use xlink:href="#j3y4mR5De" opacity="1" fill="#ffffff" fill-opacity="0.39"></use><g><use xlink:href="#j3y4mR5De" opacity="1" fill-opacity="0" stroke="#000000" stroke-width="1" stroke-opacity="0"></use></g></g><g><use xlink:href="#c1RrRU0VqQ" opacity="1" fill="#ffffff" fill-opacity="1"></use><g><use xlink:href="#c1RrRU0VqQ" opacity="1" fill-opacity="0" stroke="#000000" stroke-width="1" stroke-opacity="0"></use></g></g></g></g></svg>