<svg x="0" y="0" width="512" height="512" version="1.1"
    xmlns="http://www.w3.org/2000/svg"
    xmlns:xlink="http://www.w3.org/1999/xlink" viewBox="0 0 512 512">
    <title>magnifying glass icon</title>
    <desc>magnifying glass icon from the IconExperience.com G-Collection. Copyright by INCORS GmbH (www.incors.com).</desc>
    <g>
        <path d="M144.4,333.4l62.7,-62.65c-19.55,-26.5 -31.1,-59.3 -31.1,-94.75c0,-88.35 71.65,-160 160,-160c88.35,0 160,71.65 160,160c0,88.35 -71.65,160 -160,160c-35.6,0 -68.45,-11.6 -95,-31.25l-62.65,62.6z" fill="#788f9b"/>
        <path d="M241,304.75l-62.65,62.6l-16.95,-16.95l61.35,-61.35c5.65,5.65 11.75,10.9 18.25,15.7z" fill="#546e7a"/>
        <path d="M18.35,437.1l139.7,-139.75c3.1,-3.1 8.2,-3.1 11.3,0l45.3,45.3c3.1,3.1 3.1,8.2 0,11.3l-139.75,139.7c-3.1,3.15 -8.2,3.15 -11.3,0l-22.65,-22.6l-22.6,-22.65c-3.15,-3.1 -3.15,-8.2 0,-11.3z" fill="#ffa526"/>
        <path d="M192,320l22.65,22.65c3.1,3.1 3.1,8.2 0,11.3l-139.75,139.7c-3.1,3.15 -8.2,3.15 -11.3,0l-22.65,-22.6z" fill="#f98b00"/>
        <path d="M336,48c70.7,0 128,57.3 128,128c0,70.7 -57.3,128 -128,128c-70.7,0 -128,-57.3 -128,-128c0,-70.7 57.3,-128 128,-128z" fill="#b1e3fb"/>
        <path d="M426.5,85.45c23.15,23.2 37.5,55.2 37.5,90.55c0,70.7 -57.3,128 -128,128c-35.35,0 -67.35,-14.35 -90.55,-37.5z" fill="#7fd3f9"/>
        <path d="M336,62.2c62.85,0 113.8,50.95 113.8,113.8c0,62.85 -50.95,113.8 -113.8,113.8c-62.85,0 -113.8,-50.95 -113.8,-113.8c0,-62.85 50.95,-113.8 113.8,-113.8z" fill="#dff3fd"/>
        <path d="M416.45,95.55c20.6,20.55 33.35,49 33.35,80.45c0,62.85 -50.95,113.8 -113.8,113.8c-31.45,0 -59.9,-12.75 -80.45,-33.35z" fill="#b1e3fb"/>
    </g>
</svg>