<svg x="0" y="0" width="512" height="512" version="1.1"
    xmlns="http://www.w3.org/2000/svg"
    xmlns:xlink="http://www.w3.org/1999/xlink" viewBox="0 0 512 512">
    <title>hint icon</title>
    <desc>hint icon from the IconExperience.com G-Collection. Copyright by INCORS GmbH (www.incors.com).</desc>
    <g>
        <path d="M256,16c132.55,0 240,107.45 240,240c0,132.55 -107.45,240 -240,240c-132.55,0 -240,-107.45 -240,-240c0,-132.55 107.45,-240 240,-240z" fill="#28b5f5"/>
        <path d="M425.7,86.3c43.45,43.45 70.3,103.45 70.3,169.7c0,132.55 -107.45,240 -240,240c-66.25,0 -126.25,-26.85 -169.7,-70.3z" fill="#0299e3"/>
        <path d="M284.25,308.5l-55.55,0l-8.75,-202.5l73.05,0z M217.95,371.65c0,-10.1 3.6,-18.3 10.9,-24.75c7.2,-6.45 16.3,-9.65 27.15,-9.65c10.85,0 19.85,3.2 27.15,9.65c7.2,6.45 10.9,14.65 10.9,24.75c0,10 -3.7,18.25 -10.9,24.7c-7.3,6.45 -16.3,9.65 -27.15,9.65c-10.85,0 -19.95,-3.2 -27.15,-9.65c-7.3,-6.45 -10.9,-14.7 -10.9,-24.7z" fill="#ffffff"/>
        <path d="M284.25,308.5l-55.55,0l-1.05,-24.15l60.25,-60.25z M217.95,371.65c0,-10.1 3.6,-18.3 10.9,-24.75c7.2,-6.45 16.3,-9.65 27.15,-9.65c10.85,0 19.85,3.2 27.15,9.65c7.2,6.45 10.9,14.65 10.9,24.75c0,10 -3.7,18.25 -10.9,24.7c-7.3,6.45 -16.3,9.65 -27.15,9.65c-10.85,0 -19.95,-3.2 -27.15,-9.65c-7.3,-6.45 -10.9,-14.7 -10.9,-24.7z" fill="#ebedef"/>
    </g>
</svg>